<svg xmlns="http://www.w3.org/2000/svg" width="128.096" height="15"><g fill="#d8d8d8"><path d="M11.25 11.5h-1.2l-1.1-2.96-.93-2.82-.92 2.83L6 11.5H4.82L1.77 3.1h1.5L5.4 9.55 7.6 3.1h.86l2.22 6.46 2.1-6.47h1.5l-3 8.4zM21.73 11.5h-6.2V3.1h6.16v1.3h-4.83v2.27h4.63V7.9h-4.63v2.27h4.86v1.32zM27.3 3.1c.85 0 1.54.2 2.07.6.53.4.8 1 .8 1.8 0 .78-.4 1.34-1.17 1.66.46.13.8.4 1.06.78.24.4.37.77.37 1.15 0 .57-.15 1.05-.45 1.42-.3.38-.68.63-1.12.76-.44.14-.96.2-1.55.2h-3.84V3.1h3.85zm-2.5 3.47h2.52c.5 0 .87-.1 1.13-.28.25-.2.38-.45.38-.78 0-.32-.14-.6-.4-.85-.28-.24-.65-.37-1.12-.37h-2.5v2.27zm0 3.67h2.5c.47 0 .88-.1 1.24-.27.36-.18.54-.48.54-.9 0-.4-.18-.73-.55-.96-.37-.22-.77-.33-1.2-.33h-2.54v2.47zM37.06 4.95c-.2-.3-.48-.5-.86-.68-.37-.16-.77-.25-1.2-.25-.6 0-1.06.1-1.42.34-.35.23-.54.54-.54.93 0 .35.18.62.53.8.34.16.85.3 1.5.4.5.06.93.14 1.28.24.36.1.7.24 1.05.42.34.2.6.45.78.77.18.33.27.7.27 1.16 0 .6-.17 1.1-.52 1.5-.35.4-.77.67-1.27.84-.5.16-1.06.24-1.68.24-1.72 0-2.93-.63-3.6-1.9l1-.68c.54.92 1.4 1.38 2.6 1.38.38 0 .7-.04 1.02-.12.3-.08.56-.23.78-.45.22-.2.33-.48.33-.8 0-.43-.18-.75-.56-.95-.38-.2-.9-.35-1.58-.44-.38-.04-.7-.1-1-.16s-.55-.15-.86-.27-.55-.27-.73-.44c-.2-.16-.35-.38-.47-.65-.13-.27-.2-.57-.2-.92 0-.4.1-.78.3-1.1s.45-.57.77-.76.66-.32 1.03-.4c.37-.1.75-.15 1.15-.15 1.5 0 2.54.47 3.13 1.42l-1.02.68zM39.97 11.5V3.1h1.33v8.4h-1.33zM45.32 4.3h-2.76V3.1h6.86v1.2h-2.75v7.2h-1.35V4.3zM56.88 11.5h-6.2V3.1h6.17v1.3h-4.82v2.27h4.63V7.9h-4.63v2.27h4.85v1.32zM65.45 3.1c.85 0 1.54.2 2.07.6.52.4.8 1 .8 1.8 0 .78-.4 1.34-1.17 1.66.46.13.8.4 1.06.78.25.4.37.77.37 1.15 0 .57-.15 1.05-.45 1.42-.3.38-.67.63-1.1.76-.46.14-.97.2-1.57.2H61.6V3.1h3.85zm-2.52 3.47h2.54c.5 0 .87-.1 1.12-.28.25-.2.38-.45.38-.78 0-.32-.14-.6-.4-.85-.28-.24-.65-.37-1.13-.37h-2.5v2.27zm0 3.67h2.52c.47 0 .88-.1 1.24-.27.35-.18.53-.48.53-.9 0-.4-.18-.73-.55-.96-.37-.22-.77-.33-1.2-.33h-2.54v2.47zM72.8 6.8l2.4-3.7h1.6v.05l-3.33 4.9v3.44h-1.34V8.04l-3.24-4.9V3.1h1.58l2.32 3.7zM87.78 11.5l-3.2-3.78h-2.73v3.77h-1.6V3.03h1.6v3.43h2.7l3.19-3.43h1.9l-3.76 3.94 3.74 4.5h-1.84zM93.04 11.5c-1.92 0-2.65-.84-2.65-2.05v-6.4H92v6.4c0 .52.32.8 1.04.8h5.24c.72 0 1.06-.3 1.06-.8v-6.4h1.6v6.4c0 1.2-.4 2.04-2.32 2.04h-5.58zM110 11.5l-3.2-3.78h-2.74v3.77h-1.6V3.03h1.6v3.43h2.7l3.2-3.43h1.88l-3.75 3.94 3.73 4.5H110zM115.25 11.5c-1.9 0-2.65-.84-2.65-2.05v-6.4h1.6v6.4c0 .52.33.8 1.05.8h5.25c.72 0 1.05-.3 1.05-.8v-6.4h1.6v6.4c0 1.2-.4 2.04-2.32 2.04h-5.58zM124.73 11.5V3.03h1.6v8.45h-1.6z"/></g></svg>